<svg height="512" viewBox="0 0 50 60" width="512" xmlns="http://www.w3.org/2000/svg"><g id="Page-1" fill="none" fill-rule="evenodd"><g id="043---Calculating-Calories" fill="rgb(0,0,0)" fill-rule="nonzero"><path id="Shape" d="m26 56c0 .5522847.4477153 1 1 1h18c2.7600532-.0033061 4.9966939-2.2399468 5-5v-47c-.0033061-2.76005315-2.2399468-4.99669388-5-5h-31c-2.7600532.00330612-4.99669388 2.23994685-5 5v22c0 .5522847.44771525 1 1 1 .5522847 0 1-.4477153 1-1v-22c0-1.65685425 1.3431458-3 3-3h31c1.6568542 0 3 1.34314575 3 3v47c0 1.6568542-1.3431458 3-3 3h-18c-.5522847 0-1 .4477153-1 1z"/><path id="Shape" d="m45 7c0-1.1045695-.8954305-2-2-2h-27c-1.1045695 0-2 .8954305-2 2v9c0 1.1045695.8954305 2 2 2h27c1.1045695 0 2-.8954305 2-2zm-25.316 9 4.91-9h3.722l-4.91 9zm-3.684-9h6.316l-4.91 9h-1.406zm27 9h-17.316l4.91-9h12.406z"/><path id="Shape" d="m11.3 60c.9292248-.0006809 1.8473939-.201573 2.692-.589.349158.1611797.7123408.290051 1.085.385 4.811 1.241 10.3-3.365 12.22-10.274 1.15-4.131.823-8.355-.876-11.3-.9203431-1.7259617-2.5082067-2.9989996-4.393-3.522-2.0874257-.4773598-4.2793643-.0439174-6.028 1.192-.2752527.174787-.5729751.3113692-.885.406.636-4.21 3.54-5.3 3.689-5.352.504982-.189341.7688531-.7450116.5964473-1.2560234s-.7189734-.7932557-1.2354473-.6379766c-1.3796595.555281-2.5645656 1.5057106-3.406 2.732-.1145589-.1371045-.2367526-.2676448-.366-.391-.9875149-.8881839-2.1852759-1.5097806-3.48-1.806-1.834-.453-4.861-.018-7.077.43-.62709722.1267306-1.12667666.6005871-1.2863491 1.2201162-.15967245.6195291.04862947 1.2758293.5363491 1.6898838.721.613 1.568 1.288 2.441 1.905-1.69981849.5957483-3.11595832 1.8046916-3.971 3.39-1.7 2.942-2.026 7.166-.875 11.3 1.719 6.147 6.245 10.478 10.619 10.478zm-.862-28.469c.9558137.2157278 1.8426352.6667006 2.58 1.312.453.432.677.884.6 1.206s-.487.616-1.09.787c-.9536942.2262801-1.9487995.2108122-2.895-.045-1.74013883-.6787403-3.33820398-1.6765135-4.712-2.942 1.8035032-.4347537 3.67022263-.543465 5.512-.321zm-7.149 7.691c.65470726-1.2564036 1.79510214-2.1901109 3.156-2.584.37138587-.0957763.75346398-.1438301 1.137-.143 1.18336363.0338888 2.33187719.4081626 3.308 1.078.6392035.406897 1.3531198.6822647 2.1.81v1.606c0 .5522847.4477153 1 1 1s1-.4477153 1-1v-1.606c.7471532-.1267427 1.4612607-.4021841 2.1-.81 1.2823922-.9279578 2.8984645-1.26782 4.446-.935 1.3605795.394024 2.5006136 1.3277318 3.155 2.584 1.436 2.487 1.691 6.135.681 9.759-1.633 5.867-6.026 9.856-9.8 8.874-.3813772-.097256-.7479811-.2452429-1.09-.44-.3047945-.1717872-.6772055-.1717872-.982 0-.3434049.1952937-.7113121.3439363-1.094.442-3.766.974-8.16-3.008-9.794-8.876-1.012-3.624-.759-7.272.677-9.759z"/><path id="Shape" d="m6.462 47.908c-.74551751-2.1858699-.6416407-4.5721809.291-6.685.13776823-.3107484.38116351-.5626466.687-.711.53516392-.1380712.85707119-.6838361.719-1.219s-.68383608-.8570712-1.219-.719c-.83902899.263594-1.53333453.8595908-1.921 1.649-.906 1.567-1.509 4.55-.486 8.222.14828846.5321264.69987364.8432885 1.232.695s.84328846-.6998736.695-1.232z"/><path id="Shape" d="m42 43h-3c-1.6568542 0-3 1.3431458-3 3v3c0 1.6568542 1.3431458 3 3 3h3c1.6568542 0 3-1.3431458 3-3v-3c0-1.6568542-1.3431458-3-3-3zm1 6c0 .5522847-.4477153 1-1 1h-3c-.5522847 0-1-.4477153-1-1v-3c0-.5522847.4477153-1 1-1h3c.5522847 0 1 .4477153 1 1z"/><path id="Shape" d="m45 35c0-1.6568542-1.3431458-3-3-3h-3c-1.6568542 0-3 1.3431458-3 3v3c0 1.6568542 1.3431458 3 3 3h3c1.6568542 0 3-1.3431458 3-3zm-2 3c0 .5522847-.4477153 1-1 1h-3c-.5522847 0-1-.4477153-1-1v-3c0-.5522847.4477153-1 1-1h3c.5522847 0 1 .4477153 1 1z"/><path id="Shape" d="m45 24c0-1.6568542-1.3431458-3-3-3h-3c-1.6568542 0-3 1.3431458-3 3v3c0 1.6568542 1.3431458 3 3 3h3c1.6568542 0 3-1.3431458 3-3zm-2 3c0 .5522847-.4477153 1-1 1h-3c-.5522847 0-1-.4477153-1-1v-3c0-.5522847.4477153-1 1-1h3c.5522847 0 1 .4477153 1 1z"/><path id="Shape" d="m31 50h-1.02c-.5522847 0-1 .4477153-1 1s.4477153 1 1 1h1.02c1.6568542 0 3-1.3431458 3-3v-3c0-1.6568542-1.3431458-3-3-3h-.04c-.2631596.0007638-.5150246.1070133-.6992183.2949661-.1841937.1879527-.2853339.4419126-.2807817.7050339.0092959.5561932.4637318 1.0017186 1.02 1 .5522847 0 1 .4477153 1 1v3c0 .2652165-.1053568.5195704-.2928932.7071068s-.4418903.2928932-.7071068.2928932z"/><path id="Shape" d="m27.258 34.342c.185255-.2172397.4564962-.3422592.742-.342h3c.5522847 0 1 .4477153 1 1v3c0 .5522847-.4477153 1-1 1h-.63c-.5522847 0-1 .4477153-1 1s.4477153 1 1 1h.63c1.6568542 0 3-1.3431458 3-3v-3c0-1.6568542-1.3431458-3-3-3h-3c-.8786712-.0029658-1.7131184.3851236-2.277 1.059-.3542907.4238785-.2978785 1.0547093.126 1.409s1.0547093.2978785 1.409-.126z"/><path id="Shape" d="m29.5 28h-7.5c-.5522847 0-1 .4477153-1 1s.4477153 1 1 1h7.5c2.4818637-.0082318 4.4917682-2.0181363 4.5-4.5-.0027556-2.4841391-2.0158609-4.4972444-4.5-4.5h-11c-1.5756402-.0038303-3.0379355.818713-3.8528698 2.1672451-.8149343 1.348532-.8631846 3.0256-.1271302 4.4187549.2626114.4860106.8694894.6671114 1.3555.4045s.6671114-.8694894.4045-1.3555c-.1858485-.3493221-.2820599-.7393216-.28-1.135.0087298-1.3770797 1.1229203-2.4912702 2.5-2.5h11c1.3807119 0 2.5 1.1192881 2.5 2.5-.0087298 1.3770797-1.1229203 2.4912702-2.5 2.5z"/></g></g></svg>